<?xml version="1.0" standalone="no"?>
<!DOCTYPE svg PUBLIC "-//W3C//DTD SVG 20010904//EN"
 "http://www.w3.org/TR/2001/REC-SVG-20010904/DTD/svg10.dtd">
<svg version="1.0" xmlns="http://www.w3.org/2000/svg"
 width="700.000000pt" height="700.000000pt" viewBox="0 0 700.000000 700.000000"
 preserveAspectRatio="xMidYMid meet">
<metadata>
Created by potrace 1.11, written by Peter Selinger 2001-2013
</metadata>
<g transform="translate(0.000000,700.000000) scale(0.100000,-0.100000)"
fill="#000000" stroke="none">
<path d="M500 6985 c0 -8 67 -101 130 -180 231 -290 524 -457 787 -449 36 1
61 -2 57 -7 -3 -5 -10 -9 -16 -9 -6 0 -25 -10 -42 -23 -17 -13 -84 -49 -149
-81 -130 -64 -202 -122 -272 -220 -55 -79 -187 -300 -233 -392 l-35 -72 -74
-12 c-246 -42 -498 19 -620 149 l-33 35 21 -75 c54 -196 140 -299 302 -361 66
-25 183 -31 246 -12 25 7 49 14 52 14 7 0 -91 -243 -138 -340 -38 -81 -78
-143 -163 -255 -256 -336 -293 -466 -178 -633 106 -154 230 -191 463 -136 23
5 137 44 230 78 165 61 191 64 510 57 105 -3 185 9 350 50 66 17 127 33 135
35 8 2 42 10 75 18 75 19 232 14 295 -9 205 -75 408 -294 511 -551 33 -81 59
-196 59 -255 0 -40 1 -42 120 -213 100 -145 229 -328 250 -356 15 -19 46 -62
71 -95 24 -33 46 -62 49 -65 5 -4 74 -92 130 -164 8 -11 67 -72 131 -135 219
-218 238 -318 124 -671 -54 -164 -67 -236 -63 -322 5 -94 33 -137 102 -161 24
-8 46 -14 48 -12 2 1 22 5 45 9 112 15 336 183 427 320 61 92 57 151 -26 359
-48 121 -53 138 -51 207 4 249 3 279 -15 370 -26 124 -68 233 -138 350 -30 52
-59 97 -62 100 -4 3 -19 21 -34 41 -74 100 -257 274 -493 469 -173 143 -200
165 -215 180 -9 8 -43 37 -76 65 -83 70 -294 278 -294 290 0 6 3 6 8 0 10 -15
241 -186 442 -328 253 -179 356 -254 475 -347 61 -47 126 -97 145 -111 113
-84 261 -276 337 -439 83 -176 105 -305 78 -458 l-8 -42 165 99 c257 154 315
181 431 195 69 8 104 -3 118 -38 18 -44 71 -126 105 -161 57 -59 133 -115 304
-225 270 -173 342 -234 411 -351 75 -126 119 -247 209 -568 26 -97 60 -210 75
-251 63 -179 64 -182 69 -356 4 -93 8 -182 11 -199 29 -163 117 -237 284 -240
140 -3 264 38 305 100 53 80 34 171 -83 410 -92 187 -97 200 -132 325 -11 41
-33 93 -48 115 -54 78 -90 156 -132 282 -36 112 -65 175 -140 309 -32 58 -38
69 -74 144 -43 87 -74 127 -183 236 -213 214 -246 298 -277 704 -8 105 -11
125 -20 175 -36 201 -224 606 -365 788 -41 52 -5 25 45 -34 28 -33 55 -65 60
-72 85 -101 306 -490 361 -633 27 -72 76 -273 98 -404 2 -14 14 -65 25 -115
38 -158 86 -238 272 -450 34 -38 76 -92 95 -120 38 -57 123 -248 194 -440 98
-260 117 -289 190 -280 64 8 115 57 124 118 3 23 6 25 60 32 66 7 130 37 151
69 37 56 -4 165 -105 278 -46 52 -116 123 -279 282 -77 76 -94 98 -106 140
-14 48 -37 163 -50 251 -5 38 -8 58 -20 169 -9 90 -18 326 -18 476 1 164 2
176 63 445 55 244 64 309 56 433 -7 124 -10 149 -32 257 -17 83 -76 271 -100
315 -7 14 -33 66 -57 115 -56 114 -119 211 -309 477 -188 264 -251 348 -347
463 -190 227 -407 396 -683 533 -128 63 -507 242 -513 242 -2 0 -41 17 -87 39
-339 158 -750 287 -981 308 -113 10 -306 5 -417 -12 -14 -2 -56 -7 -95 -10
-38 -3 -88 -8 -110 -10 -281 -33 -448 -62 -544 -95 l-54 -20 -33 38 c-17 21
-54 50 -81 64 -52 29 -194 73 -264 83 -24 3 -55 8 -69 10 -14 2 -50 7 -80 10
-30 3 -71 8 -90 10 -19 2 -64 7 -100 10 -76 7 -145 15 -180 21 -14 2 -45 7
-70 10 -291 40 -566 149 -702 279 -16 14 -28 23 -28 20z"/>
<path d="M2704 3155 c-226 -252 -739 -388 -1204 -319 l-35 5 34 -16 c18 -8 43
-17 55 -19 11 -3 50 -11 86 -20 94 -21 191 -33 290 -35 l55 -2 -45 -39 c-43
-37 -194 -120 -219 -120 -6 0 -11 -4 -11 -9 0 -28 228 30 382 95 73 32 211
105 248 132 19 15 29 18 21 9 -13 -16 -92 -83 -274 -231 -38 -31 -67 -56 -64
-56 2 0 33 9 68 21 125 40 203 85 494 285 91 63 120 80 112 66 -5 -8 -71 -235
-82 -282 -40 -173 -56 -387 -35 -475 48 -209 79 -345 84 -370 3 -16 8 -43 12
-60 13 -64 12 -242 -2 -318 -8 -44 -33 -127 -56 -185 -65 -167 -121 -266 -314
-552 -61 -91 -133 -203 -161 -250 -27 -47 -69 -114 -91 -149 -56 -86 -56 -120
-2 -171 111 -105 285 -115 415 -26 113 78 146 163 225 570 44 228 85 319 269
596 179 269 223 363 251 535 5 33 12 94 15 135 12 176 34 274 74 334 l19 28
-36 62 c-20 33 -39 63 -42 66 -3 3 -11 16 -19 30 -8 14 -83 138 -166 276 -84
138 -154 255 -156 260 -7 17 -140 254 -143 254 -1 0 -25 -25 -52 -55z"/>
</g>
</svg>
